inDegrees=yes
name=ik_S51_A03_T02
DataType=double
version=3
OpenSimVersion=4.3-2021-08-27-4bc7ad9
endheader
time	pelvis_tilt	pelvis_list	pelvis_rotation	pelvis_tx	pelvis_ty	pelvis_tz	hip_flexion_r	hip_adduction_r	hip_rotation_r	knee_angle_r	knee_angle_r_beta	ankle_angle_r	subtalar_angle_r	mtp_angle_r	hip_flexion_l	hip_adduction_l	hip_rotation_l	knee_angle_l	knee_angle_l_beta	ankle_angle_l	subtalar_angle_l	mtp_angle_l	lumbar_extension	lumbar_bending	lumbar_rotation	arm_flex_r	arm_add_r	arm_rot_r	elbow_flex_r	pro_sup_r	wrist_flex_r	wrist_dev_r	arm_flex_l	arm_add_l	arm_rot_l	elbow_flex_l	pro_sup_l	wrist_flex_l	wrist_dev_l
21.47999999999963	2.630038753465227	-0.6195359289370084	103.2678713029177	0	0.9399999999999999	0	7.737371020393156	-13.0469562370009	-15.56010403415291	19.84037781606332	0.3462799177299469	0	0	0	7.507469903164703	0.9131342842456152	-2.521142734853046	8.005275287746056	0.1397184112997051	0	0	0	0	0	0	39.81144011185312	-39.81144011185312	4.881275736658906	83.33632910368328	85.1187245327763	0	0	39.81144011185312	-39.81144011185312	4.881275736658906	83.33632910368328	85.11872453275332	0	0
21.49999999999963	2.456283113547129	-0.5303431751296108	103.3619567833339	0	0.9399999999999999	0	8.747636919313665	-14.15903897965374	-16.67852115318996	21.7863092557019	0.3802428283697133	0	0	0	7.365053742795846	1.099784549780879	-2.515214233833945	7.974228478772491	0.1391765422608787	0	0	0	0	0	0	39.8133670515431	-39.8133670515431	4.881364351739537	83.33757123388781	85.11863591769969	0	0	39.8133670515431	-39.8133670515431	4.881364351739537	83.33757123388781	85.11863591767673	0	0
21.51999999999963	2.423647098826984	-0.3645995348055359	103.4567703087502	0	0.9399999999999999	0	9.541168549189246	-14.98832610475784	-17.67975728472202	22.55391405140168	0.3936400594087729	0	0	0	3.556956044738991	0.9070983041414852	-4.52966215547293	5.244080038181037	0.09152646290436905	0	0	0	0	0	0	39.81839894989833	-39.81839894989833	4.881570905429105	83.34046620709327	85.11842936401931	0	0	39.81839894989833	-39.81839894989833	4.881570905429105	83.34046620709327	85.11842936399634	0	0
21.53999999999963	2.835544728779437	-0.2078427675185887	103.5098076017232	0	0.9399999999999999	0	9.558910085655086	-14.41055443587885	-17.77593880884361	21.20788088055229	0.3701473487363918	0	0	0	3.498587560330563	0.5001365848039333	-4.46463242804368	5.270303092220859	0.09198414153729233	0	0	0	0	0	0	39.81969304552409	-39.81969304552409	4.881629894009154	83.34129305143567	85.11837037544197	0	0	39.81969304552409	-39.81969304552409	4.881629894009154	83.34129305143567	85.118370375419	0	0
21.55999999999963	2.828534240040116	-0.209698203263394	103.5157888232207	0	0.9399999999999999	0	10.41399960641754	-15.27685772606123	-18.29269051847595	22.27002412315404	0.3886852454476011	0	0	0	3.49917512678691	0.5296164313292174	-4.4721164952104	5.272368689656419	0.09202019301356361	0	0	0	0	0	0	39.82065947365071	-39.82065947365071	4.881674280683248	83.34191522447304	85.11832598876991	0	0	39.82065947365071	-39.82065947365071	4.881674280683248	83.34191522447304	85.11832598874695	0	0
21.57999999999963	3.274937499351639	-0.1390365125422759	103.529948958021	0	0.9399999999999999	0	11.54629764864539	-15.40112193812149	-18.44894884210362	21.32136585906525	0.3721280352629978	0	0	0	3.536919280986937	0.08446745016692619	-4.43231383803367	5.310749838674337	0.09269007043462486	0	0	0	0	0	0	39.82238011358613	-39.82238011358613	4.88175321208434	83.34302161325179	85.1182470573724	0	0	39.82238011358613	-39.82238011358613	4.88175321208434	83.34302161325179	85.11824705734945	0	0
21.59999999999963	3.267028119685544	-0.1541730351600825	103.53193738265	0	0.9399999999999999	0	13.87334627550772	-15.97822674409437	-19.04705373359419	18.23245991541349	0.3182164562618523	0	0	0	3.522381564012282	0.09307500344688102	-4.419173997830192	5.246287839192246	0.0915649963012435	0	0	0	0	0	0	39.83367674432019	-39.83367674432019	4.882199357324893	83.34927439066954	85.11780091215144	0	0	39.83367674432019	-39.83367674432019	4.882199357324893	83.34927439066954	85.1178009121286	0	0
21.61999999999963	3.419254354314388	-0.4035008882158594	103.5955085399312	0	0.9399999999999999	0	15.29408453840787	-15.82049634357846	-19.36837206407903	16.31022034666559	0.2846670467750854	0	0	0	3.808179466332922	-0.009984474900368103	-4.382472662995633	5.358595680170407	0.09352513790211862	0	0	0	0	0	0	39.83692359480521	-39.83692359480521	4.882335238798925	83.35117888033658	85.1176650306834	0	0	39.83692359480521	-39.83692359480521	4.882335238798925	83.35117888033658	85.11766503066063	0	0
21.63999999999963	3.396571695020191	-0.378978747845589	103.6184564093316	0	0.9399999999999999	0	15.23760286158809	-15.84600327833039	-19.40487433583362	16.25652758054014	0.2837299312216932	0	0	0	2.408623607982464	0.4780805481570376	-2.715216152929412	3.986737452597866	0.06958169496040412	0	0	0	0	0	0	39.83820019417664	-39.83820019417664	4.882393809661076	83.35199987195178	85.11760645982388	0	0	39.83820019417664	-39.83820019417664	4.882393809661076	83.35199987195178	85.11760645980114	0	0
21.65999999999963	3.414297633935645	-0.5833148636770302	103.6904146385532	0	0.9399999999999999	0	16.85319573530197	-15.18366533224764	-19.34256741086962	11.14090676181808	0.1944455046514252	0	0	0	2.415081639478682	0.6240168546466993	-2.297786631480355	3.965023683918961	0.06920271820394082	0	0	0	0	0	0	39.83283631745421	-39.83283631745421	4.882202176967271	83.34931437615111	85.1177980925094	0	0	39.83283631745421	-39.83283631745421	4.882202176967271	83.34931437615111	85.11779809248665	0	0
21.67999999999963	3.517949701707642	-0.9555588224465875	103.8443606023158	0	0.9399999999999999	0	18.72925898995437	-14.54730246782686	-20.67525830863048	9.912342513103454	0.1730030134390644	0	0	0	2.582408448139535	0.6977722085955934	-1.839379371044807	3.941434263320294	0.0687910051458563	0	0	0	0	0	0	39.8384908888608	-39.8384908888608	4.882431725182583	83.35253160250174	85.11756854430422	0	0	39.8384908888608	-39.8384908888608	4.882431725182583	83.35253160250174	85.11756854428154	0	0
21.69999999999963	3.516379981739813	-0.9463109747618601	103.8398246904913	0	0.9399999999999999	0	19.39166143353632	-14.13045802348695	-21.93305885188456	8.125983206207499	0.1418251619100862	0	0	0	2.390124062474671	0.7133212207800785	-1.591168226774243	4.130988236623114	0.07209934609022794	0	0	0	0	0	0	39.8403336541357	-39.8403336541357	4.882516108554519	83.35371440692825	85.11748416093606	0	0	39.8403336541357	-39.8403336541357	4.882516108554519	83.35371440692825	85.11748416091341	0	0
21.71999999999963	3.535586992882647	-1.093775206518731	103.9609112248652	0	0.9399999999999999	0	20.36912824795843	-13.6173340378876	-22.97786203408171	6.613178286203663	0.1154217351156498	0	0	0	2.307616240886534	0.6587206899016895	-1.406453049635271	4.266323511066211	0.07446139222335012	0	0	0	0	0	0	39.84208963027618	-39.84208963027618	4.882596438101122	83.35484038748614	85.11740383139309	0	0	39.84208963027618	-39.84208963027618	4.882596438101122	83.35484038748614	85.11740383137044	0	0
21.73999999999963	3.451469028332125	-1.229124386031556	104.1482519884774	0	0.9399999999999999	0	21.32805071286204	-13.0932604266485	-23.64355283826871	5.148477305599348	0.08985788044691491	0	0	0	2.177493865689483	0.6777096141303715	-1.53803451967952	4.556379671966761	0.07952382724675916	0	0	0	0	0	0	39.84360088624224	-39.84360088624224	4.882665410229137	83.35580716869619	85.11733485926815	0	0	39.84360088624224	-39.84360088624224	4.882665410229137	83.35580716869619	85.11733485924552	0	0
21.75999999999962	3.123515428527418	-1.488001082667641	104.65535067073	0	0.9399999999999999	0	22.04140873520431	-12.95516687961335	-24.25042227755356	3.685766013857993	0.06432875239992893	0	0	0	2.032681066188271	1.020359919100136	-1.291330756111269	4.762491449058667	0.08312115638414955	0	0	0	0	0	0	39.8453976886622	-39.8453976886622	4.882747499257916	83.35695781000861	85.11725277024304	0	0	39.8453976886622	-39.8453976886622	4.882747499257916	83.35695781000861	85.1172527702204	0	0
21.77999999999962	3.140917689177146	-1.52941911585711	104.6609424000864	0	0.9399999999999999	0	22.1518039650562	-12.81514327510875	-24.34547228108423	2.314747857192015	0.04039997146148417	0	0	0	2.06989825221916	0.9861274743877118	-1.348943038528619	5.066704410062335	0.08843067418090465	0	0	0	0	0	0	39.84621175081141	-39.84621175081141	4.882784220547057	83.35747252641731	85.11721604895547	0	0	39.84621175081141	-39.84621175081141	4.882784220547057	83.35747252641731	85.11721604893286	0	0
21.79999999999962	2.922504222795391	-1.697814467420588	105.1467855170733	0	0.9399999999999999	0	22.55206868187674	-12.69257645564736	-24.31524862306495	1.494754199993038	0.02608838229789232	0	0	0	2.123276055908637	1.228306845910744	-0.9372450377343926	5.294964021210295	0.09241455594475852	0	0	0	0	0	0	39.84705040670018	-39.84705040670018	4.88282255441302	83.35800985204422	85.11717771509124	0	0	39.84705040670018	-39.84705040670018	4.88282255441302	83.35800985204422	85.11717771506862	0	0
21.81999999999962	2.900665511439597	-1.718524026753309	105.2983431831051	0	0.9399999999999999	0	22.68528730275235	-12.43695901131683	-23.88770889575052	1.046663249045465	0.01826771985546477	0	0	0	0.4736853214563985	1.156336279886971	-1.238704068458607	4.145694290331122	0.0723560151474078	0	0	0	0	0	0	39.84822380881144	-39.84822380881144	4.882876251945674	83.35876253073836	85.11712401756103	0	0	39.84822380881144	-39.84822380881144	4.882876251945674	83.35876253073836	85.1171240175384	0	0
21.83999999999962	2.768175197857827	-1.832887359573918	105.8697827836921	0	0.9399999999999999	0	22.69136699831596	-12.70572350087928	-23.57291851650541	1.065174219659403	0.0185907972404179	0	0	0	0.4830295820289824	1.270629896756628	-0.7981412124317901	4.26431237031386	0.07442629119550055	0	0	0	0	0	0	39.84866877315041	-39.84866877315041	4.882896557553631	83.35904715385986	85.11710371195399	0	0	39.84866877315041	-39.84866877315041	4.882896557553631	83.35904715385986	85.11710371193136	0	0
21.85999999999962	2.77319870131461	-1.838181558791644	105.8628500460771	0	0.9399999999999999	0	22.68731454085715	-12.67735315519417	-23.67029015374417	2.047059230711029	0.03572792355924968	0	0	0	-0.1721326228548139	1.156303000446346	-1.309709832009937	4.06161744063204	0.07088859729545442	0	0	0	0	0	0	39.85014026945548	-39.85014026945548	4.882963883058538	83.35999085547709	85.11703638645213	0	0	39.85014026945548	-39.85014026945548	4.882963883058538	83.35999085547709	85.1170363864295	0	0
21.87999999999962	2.564452273177974	-2.147263331274205	106.751493407186	0	0.9399999999999999	0	22.45046898754076	-12.86726842682525	-20.79905200783639	3.617994058133948	0.06314590863202853	0	0	0	0.01345231439475341	1.366502411795654	-0.5314169715923144	4.440243206438945	0.07749686354166987	0	0	0	0	0	0	39.8675231625699	-39.8675231625699	4.883649361826912	83.36959790648251	85.11635090771388	0	0	39.8675231625699	-39.8675231625699	4.883649361826912	83.36959790648251	85.11635090769136	0	0
21.89999999999962	2.520284649830099	-2.204130413174644	106.9716250055117	0	0.9399999999999999	0	22.44614914033896	-12.9942018986747	-20.98204909177979	3.608343005383206	0.06297746598524441	0	0	0	-1.113076322511257	1.226797678846719	-1.139078932894141	4.194115157285327	0.07320111870242879	0	0	0	0	0	0	39.86811802675334	-39.86811802675334	4.883676449123548	83.36997758665963	85.11632382041844	0	0	39.86811802675334	-39.86811802675334	4.883676449123548	83.36997758665963	85.11632382039592	0	0
